<?xml version="1.0" encoding="UTF-8"?>
<svg id="_레이어_2" data-name="레이어 2" xmlns="http://www.w3.org/2000/svg" xmlns:xlink="http://www.w3.org/1999/xlink" viewBox="0 0 382.99 355.22">
  <defs>
    <style>
      .cls-1 {
        fill: url(#linear-gradient);
      }

      .cls-2 {
        fill: url(#linear-gradient-2);
      }
    </style>
    <linearGradient id="linear-gradient" x1="35.88" y1="114.15" x2="280.4" y2="255.32" gradientUnits="userSpaceOnUse">
      <stop offset="0" stop-color="#5ebfed"/>
      <stop offset=".48" stop-color="#2088ca"/>
      <stop offset="1" stop-color="#004c98"/>
    </linearGradient>
    <linearGradient id="linear-gradient-2" x1="291.51" y1="346.82" x2="291.51" y2="113.59" gradientUnits="userSpaceOnUse">
      <stop offset="0" stop-color="#5ebfed"/>
      <stop offset=".32" stop-color="#2088ca"/>
      <stop offset=".93" stop-color="#004c98"/>
    </linearGradient>
  </defs>
  <g id="Layer_8" data-name="Layer 8">
    <g>
      <path class="cls-1" d="M286.02,33.82C242.02,5.82,182.02-12.18,132.02,9.82,82.05,31.81,59.05,59.78,43.06,88.77c1.8-2.23,60.13-73.97,133.96-74.95,75-1,117,54,121,89s-11,86-62,98-75,12-110.99,26.99c.34-.3,11.46-10.11,40.99-17.99,0,0-40-7-61-36s-15-79-15-84-1-10-14-2S3.02,131.82,.02,217.82c0,0-.84,27.91,8,45,15,29,23.15,28.53,25,35,2,7,9.82,23.27,16,31,2.39,2.99,3.89,10.55,7,17,2.09,4.34,6.2,8.6,7,9,2,1,23.67,.15,35-3,7.82-2.17,33.16,3.15,51,0,17-3,39.57-7.73,62-23,47-32,67-84,74-104s24.08-71.16,35-93c10-20,17-25,27-29,0,0-17-41-61-69ZM71.85,282.64c-5.16-1.18-7.83-8.82-7.83-8.82,2-8,10-11,10-11,1,9-2.17,19.82-2.17,19.82Zm-2.83-25.82c-2,2-5,7-7,11,0,0,2-13,6-16,0,0,5-1,9,0,0,0-6,3-8,5Zm67,43c5-10,17-16,17-16,10,4,10,12,10,12-9,5-27,4-27,4Zm10-23c-8,7-17,18-17,18,4-12,15-24,15-24,11-2,19,5,19,5-13-1-17,1-17,1Z"/>
      <path class="cls-2" d="M335.02,283.82c-63,61-135,63-135,63,12.39-5.9,29-16,46-38,13.78-17.84,31.93-50.49,43-80,27-72,47.29-118.94,67-115,5,1,14.14,11.56,21,31,6,17,21,78-42,139Z"/>
    </g>
  </g>
</svg>